<svg id="spiral" width="800" height="800" xmlns="http://www.w3.org/2000/svg">
        <defs>
            <marker id="arrow-black" markerWidth="10" markerHeight="10" refX="5" refY="5" orient="auto-start-reverse" markerUnits="strokeWidth">
                <path d="M 0 0 L 10 5 L 0 10 z" fill="black"></path>
            </marker>
            <marker id="arrow-blue" markerWidth="5" markerHeight="5" refX="2.5" refY="2.5" orient="auto-start-reverse" markerUnits="strokeWidth">
                <path d="M 0 0 L 5 2.5 L 0 5 z" fill="blue"></path>
            </marker>
        </defs>
    <path d="M 400,400 L 400,400 L 400.0998026728428,400.00627905195296 L 400.1984229402629,400.02506664671284 L 400.2946861752186,400.05621439437573 L 400.38743326445143,400.09947595486597 L 400.47552825814756,400.15450849718746 L 400.55786589153297,400.2208747316108 L 400.6333789367262,400.29804550409557 L 400.7010453440351,400.3854029392814 L 400.75989513295184,400.4822441154811 L 400.80901699437493,400.58778525229246 L 400.8475645670534,400.70116638872355 L 400.8747623529057,400.82145652711444 L 400.8899112377073,400.94765921564783 L 400.89239358564816,401.0787185398861 L 400.8816778784387,401.2135254915624 L 400.8573228719664,401.35092468080325 L 400.8189812459729,401.4897213560746 L 400.7664027248171,401.62868869443884 L 400.6994366501009,401.7665753231877 L 400.6180339887499,401.9021130325903 L 400.5222487630462,402.0340246383701 L 400.41223889208857,402.1610319516031 L 400.2882664371979,402.2818638130233 L 400.1506972468704,402.39526414822785 L 400,402.5 L 399.83674464922376,402.5948694939135 L 399.6616002693764,402.6787096935491 L 399.47533231916,402.75040430204035 L 399.2787993272219,402.80889116727303 L 399.07294901687516,402.8531695488855 L 398.8588138866775,402.88230710625356 L 398.63750626699175,402.89544656789127 L 398.41021287546437,402.89181204414473 L 398.17818889707144,402.87071494670687 L 397.94275161697635,402.8315594803123 L 397.70527363690474,402.77384767399286 L 397.46717570806385,402.6971839214592 L 397.22991921579865,402.601279002529 L 396.9949983531744,402.4859535600199 L 396.7639320225002,402.3511410091699 L 396.5382555054417,402.1968898594139 L 396.31951194381577,402.0233654312272 L 396.1092436743961,401.8308509537298 L 395.90898346209167,401.6197480318126 L 395.7202456766718,401.39057647468724 L 395.5445174588083,401.1439734809583 L 395.38324992157516,400.8806921785529 L 395.2378494336905,400.60159952110865 L 395.10966903070147,400.30767354569366 L 395,400 L 394.9100636850158,399.6797683504005 L 394.84100355316474,399.3482671854656 L 394.79387757113795,399.0068790326957 L 394.76965092990537,398.6570746093098 L 394.76918916037664,398.3004065309378 L 394.7932516790258,397.9385025049658 L 394.8424858009437,397.57305803807907 L 394.9174212557456,397.20582869021007 L 395.0184652395381,396.8386219096239 L 395.1458980337503,396.47328848624517 L 395.29986921906766,396.11171366253296 L 395.48039450998726,395.75580794324213 L 395.6873532326493,395.4074976472451 L 395.9204864656084,395.06871524623494 L 396.1793958600989,394.74138953656285 L 396.46354315313863,394.4274356916867 L 396.7722503835185,394.12874524370613 L 397.1047008173575,393.84717604323106 L 397.45994058647574,393.5845422473711 L 397.8368810393754,393.34260438593395 L 398.23430180112956,393.12305955598674 L 398.6508545349828,392.92753179475346 L 399.08506739498057,392.7575626804043 L 399.53535015548306,392.6146022096308 L 400,392.5 L 400.4772079484228,392.41499686394513 L 400.9650658984451,392.3607167998785 L 401.4615742537687,392.3381594443162 L 401.96465010860237,392.3481930270838 L 402.4721359549996,392.39154786963877 L 402.9818088767459,392.46881046430514 L 403.4913901908336,392.5804181697786 L 403.99855549504423,392.72665455563595 L 404.5009450778236,392.9076454257831 L 404.996174644486,393.12335554781293 L 405.48184631183875,393.37358611212824 L 405.9555598215796,393.65797294143374 L 406.4149239213084,393.97598546782757 L 406.85756786070453,394.3269264912367 L 407.28115294937453,394.7099327293677 L 407.68338412206833,395.12397616569115 L 408.06202145640356,395.5678661982642 L 408.414891587934,396.04025258844484 L 408.7398989673496,396.539629204764 L 409.035036904804,397.064338553438 L 409.29839834683486,397.6125770832174 L 409.5281863320683,398.1824012485185 L 409.7227240728819,398.77173431106985 L 409.8804646114399,399.3783738566598 L 410,400 L 410.08006995712554,400.6341842472461 L 410.1195699534077,401.2783989823559 L 410.1175586825055,401.93002754023297 L 410.0732648757378,402.5863748265145 L 409.9860934210991,403.244678440937 L 409.85563075041546,403.9021202584576 L 409.6816494613864,404.5558384197463 L 409.46411214447375,405.2029396802985 L 409.20317438797196,405.84051206527107 L 408.89918693812444,406.4656377752172 L 408.55269699481124,407.07540628621047 L 408.1644486271198,407.6669275864013 L 407.7353822969942,408.237345489862 L 407.2666334831351,408.783850967644 L 406.75953040136346,409.3036954353119 L 406.21559082175634,409.79420393582336 L 405.63651798699004,410.2527881565132 L 405.02419564046784,410.67695921909905 L 404.3806821769477,411.06434018207017 L 403.7082039324994,411.41267819554184 L 403.0091476346947,411.71985624965646 L 402.2860520379458,411.98390445889 L 401.5415987728409,412.20301082616805 L 400.7786024421635,412.37553143251057 L 400,412.5 L 399.20883945393064,412.5751367781962 L 398.4082679337333,412.59985670669386 L 397.60151917330273,412.57327680932724 L 396.7919004555734,412.4947227785593 L 395.9827790731257,412.363734711837 L 395.17756835983073,412.1800719651361 L 394.379713351341,411.9437170925515 L 393.5926761344472,411.6548788445834 L 392.81992094728145,411.313994201727 L 392.0648990940516,410.92172942406177 L 391.3310337394178,410.4789801017507 L 390.621704648777,409.9868701956733 L 389.9402329415845,409.4467500618159 L 389.2898659254165,408.8601934575068 L 388.6737620787507,408.22899353209465 L 388.09497625042155,407.5551578092038 L 387.5564451433771,406.84090217224434 L 387.0609731497359,406.0886438693805 L 386.6112186032092,405.30099355865934 L 386.2096805137203,404.48074641843675 L 385.858685847522,403.63087235260684 L 385.56037741428827,402.75450532441016 L 385.3167024205457,401.8549318567517 L 385.12940174641875,400.9355787409868 L 385,400 L 384.9297964007331,399.05186315510736 L 384.91985654001996,398.09493484982255 L 384.97100506385107,397.1330658868384 L 385.0838193186191,396.1701757376612 L 385.2586239974251,395.2102365871883 L 385.4954868201433,394.257256978119 L 385.79421527628347,393.31526512242834 L 386.15435445530693,392.3882919491929 L 386.575185984518,391.48035395983396 L 387.05572809000085,390.5954359633204 L 387.5947367913098,389.7374737650461 L 388.1907082357731,388.9103368839552 L 388.84188217336236,388.117811373031 L 389.5462465681215,387.3635828184771 L 390.3015433371742,386.65121959281333 L 391.1052752033487,385.9841564366665 L 391.95471364250136,385.3656784432675 L 392.8469079017068,384.79890551857085 L 393.77869505962894,384.28677738848853 L 394.7467110956259,383.83203922298236 L 395.747402929481,383.4372279447004 L 396.77704138912554,383.1046592874666 L 397.8317350593375,382.83641566725953 L 398.90744496018993,382.63433492534807 L 400,382.5 L 401.1051131437159,382.4347295796624 L 402.21839823408817,382.4395697867337 L 403.3353873996259,382.5152869370293 L 404.4515489802509,382.6623614157975 L 405.56230589874906,382.88098270668723 L 406.6630544035927,383.17104560542265 L 407.74918310648434,383.53214764511847 L 408.8160922360614,383.9635877551973 L 409.8592130276135,384.4643661707629 L 410.87402716741076,385.0331856040635 L 411.85608620932567,385.6684536843703 L 412.8010308808665,386.3682866672196 L 413.70461019552255,387.13051440854065 L 414.5627002884624,387.9526865937498 L 415.37132289312405,388.83208020644304 L 416.1266633770885,389.76570821590116 L 416.8250882568422,390.75032945724706 L 417.4631621125942,391.7824596727941 L 418.03766382623206,392.85838367791723 L 418.5456020677555,393.97416860968855 L 418.9842299581212,395.12567821156887 L 419.3510588393552,396.30858810266125 L 419.64387108602665,397.5184019754268 L 419.8607318957226,398.75046866136665 L 420,400 L 420.06033724140826,401.2620894425392 L 420.04071696655245,402.53173131799895 L 419.9404311897924,403.8038406860902 L 419.75909648702407,405.073273698163 L 419.49665858405064,406.33484838468644 L 419.153395609298,407.5833657853044 L 418.7299199860466,408.813631335397 L 418.22717894491234,410.02047642131566 L 417.6464536429921,411.198780015061 L 416.9893568818739,412.34349029814194 L 416.25782942256916,413.4496461836974 L 415.45413490133393,414.5123986456882 L 414.58085335628107,415.52703176407607 L 413.64087338062194,416.4889833954019 L 412.63738292428815,417.39386537906137 L 411.5738587715463,418.23748319084353 L 410.45405472800724,419.01585495695184 L 409.28198855611856,419.7252297437592 L 408.0619277037945,420.3621050409527 L 406.79837387624883,420.9232433584934 L 405.49604650634325,421.40568786094275 L 404.15986518380305,421.80677696617687 L 402.794931108484,422.12415783931283 L 401.40650763745657,422.3557987167933 L 400,422.5 L 398.5809342586375,422.55540406247894 L 397.1549355980903,422.52100371983863 L 395.7277060274455,422.3961493166141 L 394.30500158392476,422.18055438984567 L 392.8926091293762,421.8742998747885 L 391.49632283298394,421.4778368240186 L 390.1219204356903,420.99198761721163 L 388.77513939343004,420.41794564502203 L 387.46165299749146,419.75727345674716 L 386.18704657112687,419.0118993678112 L 384.9567938419309,418.18411252950864 L 383.77623358949006,417.27655646988745 L 382.6505466673704,416.2922211211028 L 381.5847334976586,415.23443335499366 L 380.58359213500125,414.10684605501933 L 379.65169699540144,412.9134257589938 L 378.79337834293847,411.6584389132615 L 378.01270262507575,410.34643678503124 L 377.31345374432664,408.9822390855061 L 376.69911535076875,407.5709163621862 L 376.17285423623565,406.1177712242554 L 375.7375049070014,404.6283184702674 L 375.39555540740093,403.10826419239476 L 375.14913446213603,401.56348393627985 L 375,399.99999999999994 L 374.9495291164504,398.42395795981423 L 374.99870952687513,396.8416025141795 L 375.1481325565642,395.25925274098114 L 375.3979877073328,393.68327686601265 L 375.74805883447357,392.1200666434388 L 376.19772196126075,390.5760114512722 L 376.7459447516233,389.0574722067776 L 377.39128765486834,387.57075520817574 L 378.1319067294978,386.122086010044 L 378.96555814625134,384.7175834403957 L 379.88960436355194,383.36323386755913 L 380.9010219615591,382.0648658246683 L 381.9964111140755,380.8281250988168 L 383.17200667063463,379.6584503907191 L 384.4236908142495,378.5610496490639 L 385.7470072535587,377.5408771816464 L 387.1371769014842,376.60261164282883 L 388.5891149860561,375.7506349939107 L 390.09744953278215,374.98901252960604 L 391.6565411518764,374.3214740600309 L 393.2605040578325,373.75139633341405 L 394.90322824326836,373.28178678017963 L 396.5784027236945,372.91526865411475 L 398.27953976489687,372.65406764106535 L 400.00000000000006,372.5 L 401.73301833900905,372.4544622953797 L 403.4717305697312,372.51842277358895 L 405.20920054548316,372.6924144297424 L 406.9384478518994,372.9765298045112 L 408.6524758424985,373.3704175437357 L 410.34429993043955,373.87328074654016 L 412.0069760221351,374.48387712045826 L 413.6336289770786,375.2005209547587 L 415.21748097740357,376.0210869157428 L 416.7518796903355,376.943015660314 L 418.2303261068125,377.96332125661246 L 419.64650194015337,379.0786003930055 L 420.99429646973664,380.2850433492538 L 422.2678327162203,381.57844669626286 L 423.46149283687345,382.95422768351824 L 424.5699426321087,384.4074402661113 L 425.58815505728086,385.93279271623 L 426.5114326372544,387.5246667571434 L 427.3354286851146,389.1771381510705 L 428.05616723070705,390.8839986659391 L 428.6700615694075,392.6387793399203 L 429.17393134664206,394.434774956804 L 429.5650180991714,396.26506963978375 L 429.8409991800053,398.12256346607353 L 430,400 L 430.040604525691,401.8899946378324 L 429.9618639796972,403.78506365364206 L 429.76330369707927,405.6776538319475 L 429.44492809831036,407.56017256981164 L 429.0072237470022,409.42501832843595 L 428.4511604681805,411.26461131215115 L 427.7781905107068,413.07142425104774 L 426.990245745351,414.8380131623328 L 426.08973289801224,416.557047964851 L 425.07952682562336,418.2213428210666 L 423.962961850327,419.8238860811843 L 422.743821175548,421.35786970497514 L 421.42632441556793,422.8167180382902 L 420.01511327810886,424.1941158231598 L 418.5152354472129,425.4840353228109 L 416.93212672133626,426.6807624458637 L 415.2715914690244,427.7789217573905 L 413.5397814717693,428.7735002684194 L 411.7431732306412,429.6598698998352 L 409.88854381999835,430.4338085214449 L 407.98294537799177,431.0915194722291 L 406.0336783296603,431.6296494734638 L 404.048263444127,432.04530485245766 L 402.0344128327497,432.336066001076 L 399.99999999999994,432.5 L 397.9530290633444,432.53567134676166 L 395.9016032624472,432.4421507329834 L 393.85389288158825,432.219021823901 L 391.8181027122763,431.86638600113196 L 389.80243918562667,431.38486503774004 L 387.8150773061371,430.7756016829011 L 385.8641275200395,430.04025814187185 L 383.95760265241285,429.1810124454606 L 382.10338504770147,428.2005527117673 L 380.30919404820213,427.10206931156074 L 378.582553944444,425.8892449572665 L 376.9307625302032,424.56624274410154 L 375.3608603931563,423.1376921803897 L 373.8796010699008,421.60867325248057 L 372.49342219125174,419.984698577944 L 371.20841774038126,418.27169370878374 L 370.0303115424998,416.4759756542786 L 368.9644321004155,414.60422970068197 L 368.01568888544415,412.6634846123529 L 367.1885501878172,410.66108630593567 L 366.48702262494936,408.60467009590394 L 365.9146323997145,406.50213161612464 L 365.47440839425616,404.3615965280378 L 365.1688671778533,402.19138913157303 L 365,399.9999999999999 L 364.96926183216766,397.796052764521 L 365.0775625137304,395.58827017853645 L 365.3252600492773,393.38543959512384 L 365.71215609604644,391.19637799436407 L 366.2374936715221,389.02989669968935 L 366.89995710237827,386.8947659244254 L 367.6976742269631,384.7996792911269 L 368.6282208544297,382.7532184671586 L 369.68862747447764,380.76381806025404 L 370.87538820250194,378.8397309174709 L 372.1844719357941,376.9889939700722 L 373.61133568734493,375.2193947653814 L 375.15094005478863,373.53843882460274 L 376.7977667731477,371.95331796296125 L 378.54583829132474,370.4708797053144 L 380.3887393037687,369.09759792662624 L 382.31964016046703,367.8395448423902 L 384.33132207040535,366.7023644692505 L 386.41620400593536,365.69124767072356 L 388.566371208127,364.8109088970793 L 390.77360518618394,364.06556472212776 L 393.0294150974111,363.45891427289274 L 395.32507038805153,362.99412164097 L 397.65163456960374,362.67380035678264 L 400.00000000000006,362.5 L 402.3609235343022,362.474195011097 L 404.7250629053743,362.5972757604442 L 407.0830136913404,362.86954192245554 L 409.425346723548,363.2906981932249 L 411.7426457862481,363.8598523807842 L 414.0255454572863,364.5755158876577 L 416.26476893778585,365.4356065957981 L 418.45116571809575,366.43745415432005 L 420.5757489271935,367.57780766072267 L 422.62973221326024,368.85284571656456 L 424.60456600429944,370.25818882885454 L 426.49197299944024,371.78891411879135 L 428.2839827439508,373.43957228996686 L 429.9729651439783,375.20420679877606 L 431.551662780623,377.0763751605936 L 433.01322188712885,379.0491723163213 L 434.3512218577195,381.11525597521285 L 435.5597031619146,383.2668738414927 L 436.6331935439971,385.49589262422376 L 437.5667323936586,387.79382872218963 L 438.3558931806938,390.15188046827177 L 438.99680385392895,392.5609618109467 L 439.4861651123162,395.0117373041407 L 439.82126646428804,397.4946582707805 L 440,400.0000000000001 L 440.0208718099737,402.51789983312557 L 439.883010992842,405.0383959892851 L 439.58617620436615,407.55146697780475 L 439.1307597095967,410.04707144146016 L 438.5177889099537,412.5151882721854 L 437.748925327063,414.94585683899794 L 436.826461035367,417.32921716669847 L 435.75331254578964,419.65554990335 L 434.53301215303236,421.91531591464104 L 433.16969676937276,424.0991953439915 L 431.6680942780849,426.1981259786712 L 430.0335074497621,428.20334076426207 L 428.2717954748548,430.10640431250437 L 426.3893531755957,431.8992482509177 L 424.3930879701376,433.57420526656034 L 422.29039467112625,435.1240417008838 L 420.0891282100415,436.5419885578291 L 417.79757438742007,437.8217707930796 L 415.4244187574879,438.9576347587178 L 412.9787137637477,439.9443736843965 L 410.4698442496403,440.7773510835154 L 407.90749147551753,441.4525219807507 L 405.30159577977,441.96645186560244 L 402.6623180280428,442.3163332853587 L 399.99999999999994,442.5 L 397.3251238680512,442.5159386310444 L 394.64827092680423,442.3632977461282 L 391.980079735731,442.0418943311879 L 389.3312038406276,441.55221761241825 L 386.71226924187715,440.8954302006916 L 384.1338317792903,440.07336654178357 L 381.6063346043888,439.088528666532 L 379.14006591139565,437.9440792458993 L 376.74511709791153,436.64383196678745 L 374.4313415252774,435.1922392553102 L 372.2083140469571,433.5943773850244 L 370.08529147091633,431.8559290183157 L 368.07117411894217,429.98316323967657 L 366.17446864214276,427.9829131499674 L 364.4032522475022,425.86255110086876 L 362.7651384853611,423.6299616585737 L 361.26724474206117,421.29351239529575 L 359.9161615757553,418.86202261633264 L 358.7179240265616,416.34473013919967 L 357.6779850248657,413.7512562496851 L 356.8011910136631,411.0915689675525 L 356.0917598924276,408.3759447619819 L 355.5532613811114,405.6149288636807 L 355.1885998935706,402.81929432686604 L 355,399.9999999999999 L 354.98899454788494,397.16814756922787 L 355.1564155005856,394.3349378428934 L 355.5023875419904,391.5116264492666 L 356.02632448476015,388.70947912271555 L 356.7269285085705,385.9397267559399 L 357.6021922434957,383.2135203975787 L 358.6494037023029,380.54188637547617 L 359.8651540539911,377.9356817261413 L 361.2453482194576,375.40555011046393 L 362.7852182587525,372.96187839454615 L 364.47933950803616,370.61475407258536 L 366.32164941313084,368.3739237060945 L 368.30546899550177,366.2487525503886 L 370.42352687566085,364.24818553520333 L 372.6679857684,362.3807097615649 L 375.0304713539788,360.6543186716061 L 377.5021034194499,359.0764780419516 L 380.07352915475474,357.6540939445902 L 382.73495847908873,356.39348281184095 L 385.47620126437755,355.30034373412775 L 388.2867063145354,354.37973311084147 L 391.1556019515539,353.6360417656059 L 394.0717380524085,353.0729746278252 L 397.0237293743106,352.6935330724999 L 400.00000000000006,352.5 L 402.98882872959535,352.49392772681426 L 405.9783952410173,352.6761287472994 L 408.9568268371978,353.0466694151687 L 411.9122455951967,353.6048665819386 L 414.8328157299976,354.3492872178326 L 417.7067909841331,355.2777510287751 L 420.52256185343657,356.3873360711379 L 423.2687024591129,357.6743873538814 L 425.9340168769835,359.1345284057025 L 428.507584736185,360.76267577281504 L 430.9788059017863,362.5530564010967 L 433.33744405872716,364.49922784457726 L 435.573669018165,366.5941012306801 L 437.6780975717362,368.82996690128914 L 439.6418327243725,371.19852263766893 L 441.456501142149,373.69090436653136 L 443.11428865815816,376.29771923419565 L 444.6079736865748,379.009080925842 L 445.93095840287964,381.81464709737696 L 447.0772975566101,384.7036587784401 L 448.04172479198013,387.6649815966232 L 448.81967636121584,390.68714866508947 L 449.40731212546103,393.7584049684978 L 449.80153374857076,396.8667530754874 L 450,400.0000000000001 L 450.0011390942564,403.1458050284187 L 449.8041580059868,406.29172832492816 L 449.40904871165304,409.425280123662 L 448.816591320883,412.53397031310874 L 448.02835407290524,415.60535821593487 L 447.0466901859455,418.62710236584473 L 445.8747315600272,421.5870100823492 L 444.5163793462282,424.4730866443673 L 442.9762914080525,427.27358386443103 L 441.2598667131223,429.9770478669162 L 439.37322670584285,432.57236587615796 L 437.3231937239762,435.04881182354893 L 435.11726653414155,437.39609058671857 L 432.76359307308263,439.6043806786756 L 430.2709404930622,441.6643752103099 L 427.64866262091624,443.567320955904 L 424.90666495105853,445.30505535826785 L 422.0553673030708,446.8700413177398 L 419.10566428433464,448.2553996176003 L 416.0688837074973,449.454938847348 L 412.9567431212888,450.46318269480173 L 409.78130462137455,451.2753944880376 L 406.5549281154131,451.8875988787472 L 403.2902232233358,452.29660056964144 L 400,452.5 L 396.6972186727579,452.4962059153271 L 393.3949385911612,452.284444759273 L 390.1062665898736,451.86476683847474 L 386.8443049689792,451.2380492237046 L 383.6220992981277,450.4059953636431 L 380.45258625244367,449.3711314006662 L 377.34854168873807,448.1367991911922 L 374.32252917037835,446.7071460463378 L 371.38684914812154,445.0871112218076 L 368.55348900235253,443.28240919905954 L 365.8340741494702,441.2995098127823 L 363.2398204116293,439.14561529252967 L 360.7814878447281,436.8286342989635 L 358.46933621438484,434.3571530474543 L 356.3130823037529,431.7404036237936 L 354.3218592303409,428.9882296083636 L 352.50417794162246,426.1110491363127 L 350.8678910510951,423.11981553198336 L 349.420159167679,420.0259756660463 L 348.16741986191414,416.8414261934346 L 347.11535940237667,413.57846783920087 L 346.2688873851407,410.2497579078391 L 345.6321143679666,406.86826119932374 L 345.2083326092879,403.44719952215934 L 345,399.9999999999999 L 345.0087272636022,396.5402423739349 L 345.23526848744086,393.08160550725034 L 345.67951503470357,389.6378133034092 L 346.34049287347386,386.22258025106703 L 347.216363345619,382.8495568121902 L 348.30442738461323,379.5322748707319 L 349.6011331776428,376.28409345982527 L 351.1020872535524,373.11814498512433 L 352.8020689644374,370.04728216067394 L 354.6950483150029,367.0840258716216 L 356.7742070802783,364.24051417509844 L 359.03196313891686,361.52845264680747 L 361.45999793621485,358.9590662761745 L 364.0492869781741,356.5430531074453 L 366.79013324547526,354.29053981781544 L 369.67220340418896,352.21103941658583 L 372.6845666784327,350.31341124151294 L 375.815736239104,348.60582341993 L 379.05371295224177,347.0957179529585 L 382.3860313206281,345.7897785711762 L 385.7998074428867,344.6939014995552 L 389.28178880569664,343.81316925831896 L 392.81840571676565,343.15182761468037 L 396.39582417901744,342.7132657882172 L 400.0000000000002,342.5 L 403.6167339248885,342.51366044253155 L 407.23172757666055,342.7549817341546 L 410.8306399830548,343.22379690788176 L 414.39914446684526,343.91903497065226 L 417.9229856737469,344.8387220548811 L 421.3880365109799,345.97998616989264 L 424.78035476908747,347.3390655464778 L 428.0862392001301,348.9113205534428 L 431.2922848267736,350.69124915068244 L 434.3854372591097,352.6725058290656 L 437.3530457992734,354.8479239733389 L 440.182915118014,357.2095415703631 L 442.8633552923791,359.74863017139324 L 445.38322999949395,362.4557270038021 L 447.732002668122,365.3206701147442 L 449.89978039716925,368.33263641674154 L 451.87735545859675,371.4801824931785 L 453.65624421123505,374.75128801019144 L 455.2287232617621,378.13340157053017 L 456.5878627195617,381.6134888346908 L 457.7275564032664,385.1780827249747 L 458.6425488685028,388.8133355192324 L 459.32845913860575,392.50507263285454 L 459.7818010328535,396.23884788019427 L 460,399.9999999999999 L 459.98140637853913,403.7737102237118 L 459.72530501913155,407.54506066057144 L 459.23192121893993,411.29909326951923 L 458.5024229321693,415.0208691847575 L 457.5389192358568,418.69552815968433 L 456.34445504482795,422.3083478926917 L 454.92300208468737,425.84480299799986 L 453.2794461466668,429.29062338538444 L 451.41957066307276,432.63185181422085 L 449.35003665687174,435.85490038984096 L 447.07835913360054,438.9466057736452 L 444.61287999819035,441.8942828828358 L 441.9627375934284,444.6857768609327 L 439.13783297056955,447.3095131064335 L 436.14879301598694,449.75454515405943 L 433.0069305707062,452.0106002109241 L 429.72420169207567,454.0681221587065 L 426.3131602187215,455.9183118424 L 422.78690981118143,457.55316447648283 L 419.15905365124684,458.96550401029947 L 415.4436419929374,460.149014306088 L 411.6551177672318,461.0982669953245 L 407.80826045105607,461.808745891892 L 403.9181284186289,462.27686785392416 L 400,462.5 L 396.0693134774648,462.4764731996098 L 392.1416062555181,462.20559177241773 L 388.2324534440163,461.6876393457616 L 384.3574060973307,460.92388083499094 L 380.5319293543782,459.91656052659465 L 376.77134072559653,458.66889625954855 L 373.09074877308734,457.1850697158524 L 369.50499242936115,455.47021284677646 L 366.0285811983316,453.53039047682773 L 362.67563647942774,451.37257914280906 L 359.45983425198335,449.0046422405402 L 356.3943493523424,446.43530156674376 L 353.491801570514,443.67410535825036 L 350.764203786627,440.73139294494115 L 348.2229123600034,437.61825614671835 L 345.87857997532075,434.3464975581536 L 343.7411111411838,430.92858587732985 L 341.8196205264349,427.37760844763415 L 340.1223943087965,423.70722119289303 L 338.6568546989626,419.9315961371841 L 337.4295277910904,416.0653667108494 L 336.4460148778538,412.1235710536964 L 335.71096735482183,408.12159353496673 L 335.22806532500516,404.0751047174525 L 335,399.9999999999999 L 335.02845997931956,395.91233717864134 L 335.31412147429603,391.8282731716073 L 335.8566425274167,387.7640001575519 L 336.6546612621875,383.73568137941845 L 337.7057981826675,379.7593868684407 L 339.0066625257307,375.85102934388516 L 340.5528626529826,372.02630054417455 L 342.33902045311373,368.3006082441072 L 344.3587897094173,364.689014210884 L 346.6048783712537,361.2061733486965 L 349.0690746525204,357.8662742776115 L 351.7422768647028,354.68298158752054 L 354.614526876928,351.66938000196035 L 357.6750470806872,348.8379206796874 L 360.9122807225505,346.200369874066 L 364.31393545439903,343.76776016156566 L 367.86702993741557,341.5503444410743 L 371.5579433234533,339.5575528952698 L 375.372467425395,337.797953094076 L 379.29586137687863,336.2792134082247 L 383.31290857123855,335.0080698882688 L 387.4079756598394,333.99029675103213 L 391.5650733811226,333.2306806015356 L 395.7679189837243,332.7329985039345 L 400.0000000000002,332.5 L 404.24463912018155,332.5333931582488 L 408.4850599123036,332.8338347210099 L 412.70445312891206,333.40092440059493 L 416.8860433384938,334.233203359366 L 421.0131556174968,335.32815689192967 L 425.06928203782667,336.68222131101015 L 429.03814768473825,338.2907950218176 L 432.9037759411472,340.14825375300416 L 436.6505527765636,342.2479698956623 L 440.2632897820344,344.5823358853161 L 443.7272856967603,347.142791545581 L 447.0283861773009,349.91985529614897 L 450.15304156659323,352.9031591121063 L 453.0883624272518,356.0814871063152 L 455.82217261187145,359.44281759181945 L 458.3430596521894,362.9743684669516 L 460.6404222590354,366.6626457521614 L 462.70451473589526,370.4934950945407 L 464.5264881206447,374.4521560436834 L 466.09842788251325,378.52331889094137 L 467.41338801455277,382.6911838533261 L 468.4654213757897,386.9395223733752 L 469.2496061517505,391.2517402972115 L 469.7620683171362,395.61094268490115 L 470,400.0000000000004 L 469.96167366282185,404.401615419005 L 469.64645203227633,408.7983929962145 L 469.0547937262268,413.1729064153765 L 468.18825454345557,417.50776805640606 L 467.0494843988083,421.7856981034338 L 465.6422199037105,425.9895934195385 L 463.9712726093476,430.1025959136506 L 462.0425129471055,434.1081601264016 L 459.86284991809265,437.9901197640112 L 457.4402066006212,441.7327529127657 L 454.7834915613584,445.32084567113213 L 451.90256627240444,448.7397539421227 L 448.8082086527153,451.97546313514687 L 445.5120728680564,455.01464553419135 L 442.0266455389116,457.8447150978089 L 438.36519852049616,460.4538794659443 L 434.5417384330928,462.8311889591451 L 430.5709531343723,464.96658236706014 L 426.4681553380282,466.8509293353653 L 422.24922359499584,468.4760691732512 L 417.9305408645859,469.8348459173743 L 413.52893091308897,470.92113950261137 L 409.0615927866991,471.72989290503676 L 404.546033613922,472.2571351382069 L 400,472.5 L 395.4414082821716,472.45674048389253 L 390.88827391987513,472.12673878556257 L 386.35864029815906,471.5105118530485 L 381.8705072256817,470.6097124462771 L 377.4417594106287,469.4271256895462 L 373.0900951987497,467.96666111843103 L 368.8329558574366,466.2333402405126 L 364.687455688344,464.23327964721506 L 360.6703132485416,461.9736697318479 L 356.797783956503,459.46274908655846 L 353.0855943544965,456.7097746682981 L 349.5488782930555,453.7249878409579 L 346.2021152962999,450.5195764175373 L 343.05907135886906,447.10563284242807 L 340.1327424162537,443.4961086696427 L 337.43530072030063,439.70476550794353 L 334.97804434074516,435.746122618347 L 332.77135000177475,431.63540136328487 L 330.82462944991397,427.38846671973977 L 329.14628953601107,423.02176608093356 L 327.74369617980403,418.55226558249797 L 326.62314237056694,413.99738419955366 L 325.789820341677,409.3749258706098 L 325.24779804072244,404.70300991274513 L 325,399.9999999999999 L 325.04819269503685,395.2844319833482 L 325.3929744611513,390.57494083596424 L 326.0337700201298,385.8901870116946 L 326.9688296509012,381.24878250776993 L 328.195233019716,376.6692169246912 L 329.7088976668482,372.16978381703836 L 331.50459212832243,367.7685076285238 L 333.5759536526751,363.48307150309006 L 335.9155104543971,359.330746261094 L 338.5147084275042,355.3283208257717 L 341.36394222476247,351.4920343801246 L 344.4525905904887,347.8375105282337 L 347.7690558176411,344.37969372774626 L 351.30080718320033,341.1327882519295 L 355.0344281996258,338.1101999303165 L 358.95566750460904,335.32448090654555 L 363.0494931963984,332.7872776406357 L 367.30015040780256,330.50928237060964 L 371.69122189854863,328.50018823519326 L 376.2056914331292,326.76864824527314 L 380.82600969959003,325.32223827698243 L 385.53416251398215,324.16742424374524 L 390.3117410454796,323.3095335883908 L 395.1400137884312,322.75273121965176 L 400.0000000000003,322.5 L 404.87254431547467,322.5531258739661 L 409.73839224794665,322.9126877078651 L 414.5782662747698,323.5780518933081 L 419.37294221014236,324.5473717480797 L 424.10332556124627,325.81759172897813 L 428.75052756467346,327.3844564521276 L 433.29594060038903,329.24252449715743 L 437.72131268216435,331.3851869525655 L 442.0088207263536,333.80469064064215 L 446.14114230495915,336.4921659415666 L 450.1015255942472,339.4376591178231 L 453.87385723658775,342.6301690219349 L 457.4427278408074,346.05768805281946 L 460.79349485501007,349.70724720882873 L 463.9123425556209,353.5649650688947 L 466.7863389072096,357.61610051716167 L 469.40348905947405,361.8451090111442 L 471.75278526055547,366.23570217889005 L 473.82425297952716,370.7709105168366 L 475.6089930454648,375.4331489471919 L 477.099219625839,380.2042849816775 L 478.28829388307656,385.06570922751797 L 479.1707531648954,389.998407961569 L 479.7423356014189,394.983037489608 L 480,400.0000000000004 L 479.94194094710457,405.0295206142981 L 479.5675990454211,410.05172533185754 L 478.8776662335137,415.0467195612337 L 477.87408615474186,419.9946669280546 L 476.56004956175985,424.87586804718325 L 474.939984762593,429.6708389463853 L 473.0195431340078,434.3603888293013 L 470.80557974754413,438.92569686741876 L 468.3061291731128,443.34838771380123 L 465.53037654437065,447.61060543569045 L 462.48862398911626,451.69508556861905 L 459.1922525466186,455.5852250014096 L 455.65367971200214,459.265149409361 L 451.8863127655433,462.71977796194926 L 447.90449806183636,465.9348850415584 L 443.72346647028616,468.8971587209644 L 439.35927517410994,471.59425575958375 L 434.8287460500225,474.01485289172064 L 430.14940086487496,476.14869419424787 L 425.3393935387453,477.98663433620277 L 420.4174397362345,479.52067752866066 L 415.4027440589462,480.74401200989826 L 410.3149251223422,481.65103991818154 L 405.17393880921514,482.2374024224896 L 400,482.5 L 394.8135030868785,482.43700776817525 L 389.63494158423214,482.04788579870734 L 384.4848271523018,481.3333843603354 L 379.3836083540331,480.2955440575634 L 374.35158946687926,478.9376908524977 L 369.4088496719029,477.2644259773135 L 364.5751629417859,475.2816107651728 L 359.8699189473268,472.9963464476537 L 355.3120452987517,470.4169489868681 L 350.91993143357826,467.552919030308 L 346.7113544570096,464.414907096056 L 342.7034072337686,461.014674115172 L 338.91242902208535,457.36504747682375 L 335.3539389311112,453.479872739915 L 332.04257247250416,449.3739611925674 L 328.99202146528046,445.0630334577335 L 326.2149775403065,440.5636593593641 L 323.72307947711454,435.8931942789356 L 321.5268645910314,431.06971224658656 L 319.63572437305953,426.1119360246831 L 318.05786456851774,421.0391644541465 L 316.80026986327994,415.8711973454104 L 315.8686733285322,410.62825820625284 L 315.2675307564397,405.33091510803825 L 315,399.9999999999999 L 315.0679254107541,394.65652678805503 L 315.4718274480065,389.3216085003212 L 316.2108975128429,384.01637386583735 L 317.2829980396149,378.7618836361214 L 318.68466785676446,373.5790469809417 L 320.41113280796566,368.4885382901916 L 322.4563216036622,363.5107147128731 L 324.8128868522367,358.6655347620724 L 327.472231199377,353.97247831130403 L 330.42453848375476,349.45046830284696 L 333.6588097970046,345.11779448263775 L 337.1629043162746,340.99203946894676 L 340.9235847583542,337.09000745353217 L 344.9265672857134,333.4276558241716 L 349.15657567670104,330.02002998656707 L 353.5973995548191,326.8812016515254 L 358.23195645538175,324.02421084019676 L 363.04235749215184,321.46101184594943 L 368.0099763717019,319.2024233763108 L 373.1155214893797,317.2580830823216 L 378.3391108279415,315.6364066656961 L 383.66034936812486,314.34455173645836 L 389.05840870983656,313.38838657524605 L 394.512108593138,312.77246393536905 L 400.0000000000003,312.5 L 405.5004495107678,312.5728585896834 L 410.9917245835897,312.9915406947203 L 416.4520794206271,313.7551793860212 L 421.8598410817909,314.86154013679334 L 427.1934955049958,316.3070265660266 L 432.4317730915202,318.08669159324506 L 437.55373351603976,320.1942539724972 L 442.5388494231815,322.62212015212685 L 447.36708867614357,325.36141138562203 L 452.01899482788383,328.40199599781715 L 456.4757654917341,331.73252669006524 L 460.7193282958751,335.3404827477211 L 464.73241411502147,339.2122169935326 L 468.498627282768,343.3330073113418 L 472.00251249937037,347.68711254596997 L 475.22961816222977,352.25783256737174 L 478.16655585991265,357.02757227012705 L 480.8010557852157,361.9779092632393 L 483.12201783840965,367.0896649899898 L 485.1195582084163,372.34297900344245 L 486.7850512371255,377.71738611002957 L 488.11116639036345,383.19189608166073 L 489.0919001780402,388.745075625926 L 489.72260288570163,394.3551322943149 L 490,400.00000000000045 L 489.92220823138723,405.65742580959125 L 489.4887460585659,411.3050576675006 L 488.7005387408006,416.92053270709096 L 487.5599177660282,422.48156579970316 L 486.0706147247114,427.9660379909327 L 484.2377496214755,433.3520844732321 L 482.0678136586678,438.6181817449526 L 479.5686465479827,443.7432336084359 L 476.74940842813294,448.7066556635912 L 473.6205464881201,453.4884579586152 L 470.1937564168741,458.06932546610597 L 466.4819388208327,462.43069606069645 L 462.499150771289,466.5548356835751 L 458.26055266303024,470.4249103897071 L 453.78235058476105,474.02505498530786 L 449.08173442007563,477.3404379759849 L 444.17681191512713,480.3573225600224 L 439.08653896567324,483.06312341638085 L 433.83064639172176,485.44645905313035 L 428.42956348249476,487.49719949915425 L 422.90433860788306,489.20650913994695 L 417.27655720480345,490.56688451718514 L 411.5682574579853,491.5721869313263 L 405.80184400450827,492.2176697067723 L 400.00000000000006,492.5 L 394.1855978915853,492.41727505245797 L 388.38160924858846,491.96903281185206 L 382.6110140064446,491.1562568676223 L 376.8967094823845,489.98137566884975 L 371.2614195231298,488.44825601544926 L 365.7276041450561,486.56219083619607 L 360.31737002613517,484.329881289833 L 355.05238220630963,481.7594132480923 L 349.95377734896175,478.8602282418882 L 345.0420789106535,475.64308897405743 L 340.3371145595222,472.1200395238135 L 335.8579361744817,468.3043603893861 L 331.62274274787126,464.2105185361106 L 327.6488065033533,459.85411263740184 L 323.95240252875465,455.2518137154921 L 320.54874221026034,450.4213014075235 L 317.45191073986786,445.38119610038126 L 314.6748089524543,440.1509871945863 L 312.22909973214894,434.7509577734333 L 310.125159210108,429.2021059684326 L 308.37203295723145,423.526063325795 L 306.97739735599305,417.7450104912676 L 305.94752631538745,411.8815905418959 L 305.287263472157,405.9588203033314 L 305,399.9999999999999 L 305.08765812647135,394.02862159276185 L 305.55068043486176,388.0682761646782 L 306.388025005556,382.1425607199801 L 307.5971664283286,376.2749847644729 L 309.1741026938129,370.48887703719225 L 311.11336794908334,364.8072927633442 L 313.408051079002,359.25292179722237 L 316.0498200517981,353.8479980210552 L 319.02895194435683,348.6142103615141 L 322.3343685400053,343.5726157799222 L 325.9536773692467,338.74355458515083 L 329.87321804206044,334.14656840965984 L 334.0781136990673,329.8003211793181 L 338.55232738822656,325.7225233964137 L 343.27872315377687,321.9298600428172 L 348.2391316050291,318.4379223965052 L 353.4144197143646,315.2611440397581 L 358.7845645765011,312.4127413212892 L 364.32873084485516,309.90465851742823 L 370.0253515456302,307.74751791937007 L 375.852211956293,305.9505750544098 L 381.7865362222676,304.52167922917147 L 387.80507637419356,303.46723956210127 L 393.88420339784483,302.79219665108633 L 400.0000000000003,302.5 L 406.1283547060616,302.59259130540073 L 412.24505691923275,303.0703936815755 L 418.3258925664844,303.9323068787343 L 424.3467399534394,305.17570852550705 L 430.2836654487453,306.7964614030751 L 436.113018618367,308.7889267343626 L 441.8115264316905,311.14598344783707 L 447.3563861641986,313.8590533516882 L 452.72535662593356,316.91813213060186 L 457.89684735080914,320.31182605406804 L 462.850005389221,324.0273942623073 L 467.564799355162,328.05079647350703 L 472.02210038923556,332.3667459342457 L 476.2037597105259,336.95876741385496 L 480.0926824431199,341.8092600230452 L 483.67289741724994,346.8995646175818 L 486.9296226603513,352.21003552910986 L 489.8493263098759,357.7201163475886 L 492.4197826972922,363.408419463143 L 494.63012337136786,369.252809059693 L 496.47088284841186,375.23048723838104 L 497.9340388976503,381.3180829358035 L 499.01304719118497,387.49174329028295 L 499.70287016998435,393.7272270990217 L 500,400.00000000000045 L 499.90247551566995,406.28533100488437 L 499.40989307171066,412.5583900031437 L 498.5234112480875,418.7943458529482 L 497.2457493773145,424.96846467135174 L 495.58117988766276,431.05620793468285 L 493.53551448035796,437.0333300000788 L 491.1160841833279,442.87597466060333 L 488.3317133484214,448.56077034945304 L 485.19268768315305,454.0649236133812 L 481.7107164318696,459.36631048153987 L 477.89888884463204,464.4435653635929 L 473.77162509504683,469.2761671199833 L 469.3446218305759,473.84452195778925 L 464.63479256051716,478.130042817465 L 459.6602031076858,482.1152249290573 L 454.44000236986557,485.7837172310051 L 448.99434865614427,489.12038936046105 L 443.3443318813239,492.111393941041 L 437.51189191856855,494.7442239120129 L 431.5197334262442,497.00776466210584 L 425.3912374795309,498.89234075123346 L 419.1503703506614,500.3897570244719 L 412.82158979362833,501.4933339444711 L 406.4297491998014,502.19793699105503 L 399.9999999999994,502.5 L 393.55769269629144,502.3975423367406 L 387.1282769129461,501.8901798249969 L 380.73720086058734,500.9791293749092 L 374.4098106107359,499.66720728013604 L 368.1712495793796,497.95882117840057 L 362.04635861821,495.85995569507884 L 356.0595771104845,493.3781518144932 L 350.2348454652925,490.52248004853095 L 344.59550939917114,487.303507496908 L 339.1642263877282,483.7332589178065 L 333.9628746620358,479.82517195157186 L 329.0124651151948,475.59404666360024 L 324.3330564736571,471.0559895953975 L 319.9436740755949,466.2283525348882 L 315.8622325850056,461.1296662384174 L 312.10546295524017,455.7795693573135 L 308.6888439394292,450.1987328413984 L 305.62653842779383,444.4087801102364 L 302.9313348732661,438.4322033002794 L 300.61459404715646,432.2922759121821 L 298.6862013459451,426.0129621974436 L 297.15452484870616,419.6188236371248 L 296.0263793022426,413.13492287753814 L 295.30699618787435,406.5867254986252 L 295,399.9999999999999 L 295.1073908421887,393.4007163974687 L 295.62953342171704,386.8149438290344 L 296.565152498269,380.26874757412355 L 297.9113348170423,373.78808589282437 L 299.6635375308614,367.3987070934428 L 301.81560309020085,361.1260472364974 L 304.35978055434214,354.99512888157096 L 307.28675325135913,349.0304612800387 L 310.58567268933666,343.25594241172416 L 314.24419859625584,337.6947632569975 L 318.2485449414893,332.3693146876634 L 322.5835317678459,327.30109735037354 L 327.23264263978035,322.510634905104 L 332.1780874907397,318.01739096865583 L 337.4008706308521,313.8396900990677 L 342.8808636552398,309.99464314148463 L 348.59688297334685,306.49807723931985 L 354.5267716608504,303.364470796629 L 360.6474853180084,300.60689365854574 L 366.9351816018814,298.2369527564183 L 373.36531308464373,296.2647434431237 L 379.9127230764103,294.6988067218846 L 386.5517440385505,293.5460925489565 L 393.25629820255244,292.81192936680355 L 400.0000000000011,292.5 L 406.756259901354,292.61232402111796 L 413.4983892548758,293.14924666843075 L 420.19970571234165,294.1094343714475 L 426.8336388250887,295.4898769142209 L 433.3738353924941,297.2858962401233 L 439.79426414521373,299.49116187548003 L 446.0693193473412,302.09771292317686 L 452.17392290521644,305.0959865512499 L 458.0836245757242,308.47485287558214 L 463.77469987373325,312.2216561103181 L 469.2242452867079,316.3222618345494 L 474.4102704144489,320.76111019929294 L 479.3117866634502,325.5212748749594 L 483.9088921382833,330.58452751636753 L 488.18285238686934,335.9314075001205 L 492.1161766722701,341.5412966677918 L 495.6926894607903,347.3924987880934 L 498.89759683453644,353.4623234319386 L 501.7175475561747,359.7271739362962 L 504.14068853431945,366.16263911594353 L 506.15671445969815,372.7435883667325 L 507.75691140493734,379.444269789947 L 508.93419420432963,386.23841095463916 L 509.68313745426707,393.0993219037286 L 510,400.0000000000005 L 509.88274279995267,406.91323620017823 L 509.3310400848555,413.81172233878596 L 508.3462837553744,420.6681589988054 L 506.9315809886008,427.4553635430003 L 505.09174505061424,434.14637787843236 L 502.8332793392402,440.71457552692635 L 500.1643547079884,447.1337675762534 L 497.09478014886,453.37830709047023 L 493.63596693817317,459.42319156317114 L 489.8008863756187,465.24416300446524 L 485.6040212723904,470.8178052610792 L 481.061311369261,476.1216381792702 L 476.1900928898628,481.13420823200335 L 471.0090324580035,485.83517524522335 L 465.5380556306099,490.2053948728073 L 459.7982703196561,494.2269964860248 L 453.8118853971614,497.88345616089964 L 447.60212479697464,501.1596644657012 L 441.1931374454146,504.0419887708957 L 434.6099033699944,506.5183298250571 L 427.87813635118016,508.5781723625196 L 421.0241834965179,510.212629531759 L 414.0749221292706,511.414480957616 L 407.0576543950937,512.1782042753379 L 400.0000000000001,512.5 L 392.92978750099905,512.3778096210234 L 385.8749445773023,511.81132683814155 L 378.8633877147293,510.8020018821959 L 371.92291173908814,509.35303889142256 L 365.08107963563083,507.46938634135233 L 358.3651130913625,505.1577205539611 L 351.80178419483303,502.4264223391531 L 345.4173087242746,499.2855468489692 L 339.2372414493818,495.74678675192854 L 333.28637386480403,491.82342886155635 L 327.5886347645483,487.53030437932927 L 322.16699405590737,482.8837329378138 L 317.04337019944353,477.9014606546849 L 312.2385416478375,472.6025924323757 L 307.7720626412557,467.00751876134154 L 303.6621837002196,461.1378373071028 L 299.92577713899095,455.0162695824162 L 296.578267903134,448.6665730258878 L 293.6335700143839,442.11344882712683 L 291.1040288842047,435.3824458559308 L 289.0003697346586,428.4998610690913 L 287.33165234141944,421.4926367829828 L 286.1052322890979,414.388255213182 L 285.3267289035916,407.21463069391757 L 285,399.9999999999991 L 285.1271235579059,392.7728112021764 L 285.70838640857215,385.56161149339215 L 286.74227999098224,378.39493442826557 L 288.2255032057561,371.30118702117505 L 290.1529723679101,364.3085371496925 L 292.5178382313181,357.44480170965136 L 295.3115100296816,350.7373359659209 L 298.5236864509209,344.21292453902083 L 302.14239343431694,337.8976744619335 L 306.1540286525059,331.8169107340734 L 310.5434125137309,325.9950747901771 L 315.29384549363226,320.45562629108605 L 320.38717158049405,315.2209486308893 L 325.8038475932534,310.31225854089735 L 331.52301810792676,305.7495201553187 L 337.5225957054492,301.5513638864649 L 343.77934623233034,297.7350104388808 L 350.2689787452004,294.31620027196846 L 356.9662397911609,291.30912879966354 L 363.8450116581312,288.726387593467 L 370.87841421299595,286.57891183183716 L 378.03890993055387,284.8759342145975 L 385.2984117029083,283.62494553581155 L 392.6283930072585,282.8316620825209 L 400.0000000000003,282.5 L 407.3841650966479,282.6320567368353 L 414.75172159051965,283.2280996552861 L 422.0735188581981,284.28656186416043 L 429.3205376967365,285.8040453029344 L 436.46400533624427,287.77533107717204 L 443.47550967206126,290.1933970165978 L 450.3271122629927,293.049442398517 L 456.9914596462329,296.3329197508109 L 463.4418925255135,300.0315736205616 L 469.6525523966586,304.1314861665691 L 475.59848518419545,308.61712940679206 L 481.25574147373516,313.4714239250783 L 486.6014729376638,318.6758038156719 L 491.61402456604173,324.2102876188812 L 496.2730223306193,330.0535549771964 L 500.5594559272898,336.1830287180012 L 504.45575626122854,342.57496204707553 L 507.9458673591963,349.20453051628715 L 511.0153124150575,356.04592840945014 L 513.6512536972712,363.0724691721949 L 515.8425460709842,370.2566894950832 L 517.5797839122241,377.57045664408895 L 518.8553412174746,384.9850786189969 L 519.6634047385498,392.47141670843627 L 520,399.99999999999966 L 519.8630100842354,407.54114139547056 L 519.2521870980001,415.0650546744298 L 518.1691562626611,422.5419721446635 L 516.6174125998868,429.9422624146497 L 514.602310213566,437.236547822181 L 512.131044198123,444.3958210537724 L 509.2126252326483,451.39156049190484 L 505.8578469492983,458.1958438314881 L 502.0792461931938,464.7814595129604 L 497.8910563193686,471.1220155273893 L 493.3091537001478,477.19204515856666 L 488.3509976434745,482.96710923855767 L 483.03556394914904,488.42389450621806 L 477.38327235549104,493.54030767298076 L 471.41590815353527,498.2955648165563 L 465.15653826944543,502.67027574104543 L 458.6294221381778,506.64652296133875 L 451.8599177126261,510.2079349903611 L 444.87438297226214,513.3397536297779 L 437.70007331374313,516.0288949880089 L 430.36503522282794,518.2640039738061 L 422.89799664237427,520.035502039046 L 415.3282544649145,521.3356279707607 L 407.68555959038764,522.1584715596205 L 399.99999999999926,522.5 L 392.3018823057051,522.358076905306 L 384.6216122416601,521.7324738512865 L 376.98957456887285,520.624874389483 L 369.4360128674388,519.0388705027086 L 361.9909096918806,516.9799515043036 L 354.6838675645149,514.4554854128432 L 347.54399127918305,511.47469286381363 L 340.59977198325817,508.0486136494082 L 333.87897349959115,504.19006600694826 L 327.4085213418786,499.91359880530536 L 321.2143948670621,495.2354368070877 L 315.32152299662107,490.1734192120285 L 309.7536839252288,484.7469317139712 L 304.5334092200791,478.9768323298619 L 299.6818926975067,472.88537128426697 L 295.2189044451999,466.49610525689343 L 291.16271033855196,459.83380632343267 L 287.5299973784734,452.9243659415378 L 284.3358051555011,445.79469435397283 L 281.59346372125344,438.4726157996811 L 279.3145381233725,430.9867599407407 L 277.5087798341324,423.36644992883924 L 276.184085275953,415.64158754882413 L 275.3464616193089,407.8425358892116 L 275,399.99999999999994 L 275.14685627362326,392.1449060068824 L 275.7872393954275,384.30827915774825 L 276.9194074836955,376.5211212824075 L 278.5396715944696,368.81428814952733 L 280.6424072049583,361.2183672059438 L 283.2200733724359,353.7635561828038 L 286.26323950502183,346.4795430502694 L 289.76061965048183,339.3953877980045 L 293.6991141792964,332.53940651214424 L 298.0638587087569,325.939058211148 L 302.83828008597357,319.6208348926895 L 308.00415921941874,313.6101552317985 L 313.54170052120656,307.9312623566758 L 319.42960769576587,302.60712611314 L 325.6451655850027,297.6593502115687 L 332.16432775566,293.1080846314443 L 338.96180949131247,288.9719436384426 L 346.01118582954894,285.26792974730864 L 353.2849942643149,282.0113639407807 L 360.75484171438256,279.2158224305152 L 368.3915153413483,276.89308022055064 L 376.1650967846958,275.0530617073108 L 384.04507936726446,273.70379852266694 L 392.00048781196625,272.8513947982382 L 400.0000000000012,272.5 L 408.0120702919402,272.6517894525525 L 416.00505392616185,273.3069526421412 L 423.9473320040562,274.4636893568737 L 431.8074365683859,276.1182136916483 L 439.5541752799929,278.2647659142202 L 447.15675519890726,280.895632157715 L 454.5849051786427,284.0011718738565 L 461.8089963872508,287.5698529503727 L 468.8001604753042,291.5882943655419 L 475.5304049195827,296.04131622281915 L 481.9727250816817,300.91199697903363 L 488.1012125330227,306.18173765086476 L 493.8911592118785,311.83033275638564 L 499.319156993799,317.8360477213936 L 504.36319227436826,324.175702454271 L 509.0027351823104,330.82476076821195 L 513.2188230616676,337.75742530605913 L 516.9941378838569,344.9467376006373 L 520.3130772739397,352.36468288260255 L 523.1618188602224,359.98229922844456 L 525.5283776822707,367.7697906234355 L 527.4026564195111,375.6966434982326 L 528.7764882306192,383.731746283353 L 529.6436720228324,391.8435115131423 L 530,400.0000000000005 L 529.8432773685181,408.1690465907646 L 529.1733341111449,416.31838701007376 L 527.9920287699482,424.4157852905198 L 526.3032442111735,432.42916128629736 L 524.1128753765173,440.32671776593133 L 521.4288090570052,448.07706658062 L 518.2608957573088,455.6493534075547 L 514.6209137497373,463.0133805725045 L 510.52252544821346,470.1397274627511 L 505.98122626311755,476.9998680503148 L 501.0142861279051,483.5662850560543 L 495.6406839176892,489.8125802978439 L 489.8810350084366,495.7135807804316 L 483.7575122529772,501.2454401007392 L 477.29376067645927,506.3857347603063 L 470.51480621923616,511.11355499606503 L 463.44695887919573,515.4095897617769 L 456.11771062827603,519.2562055150216 L 448.5556284991081,522.6375184886608 L 440.7902432574917,525.5394601509607 L 432.8519340944773,527.9498355850922 L 424.7718097882324,529.8583745463327 L 416.58158680055664,531.2567749839055 L 408.31346478567986,532.1387388439033 L 400.00000000000017,532.5 L 391.6739771104128,532.3383441895887 L 383.3682799060162,531.6536208644311 L 375.1157614230147,530.4477468967697 L 366.94911399579115,528.7247021139951 L 358.90073974813197,526.4905166672554 L 351.0026220376689,523.7532502717261 L 343.2861983635315,520.5229633884735 L 335.7822352422402,516.8116804498463 L 328.52070554980196,512.6333452619689 L 321.5306688189546,508.0037687490553 L 314.8401549695745,502.94056923484504 L 308.4760519373335,497.46310548624194 L 302.46399765101535,491.5924027732588 L 296.8282767923218,485.3510722273495 L 291.5917227537567,478.763223807191 L 286.77562519017926,471.8543732066827 L 282.39964353811285,464.651343064449 L 278.4817268538136,457.18215885718934 L 275.0380402966189,449.4759398808204 L 272.0828985583016,441.5627857434297 L 269.62870651208596,433.4736588123883 L 267.68590732684567,425.2402630746974 L 266.26293826280835,416.8949198844681 L 265.36619433502614,408.4704410845038 L 265,399.99999999999903 L 265.16658898934054,391.51700081158833 L 265.86609238228255,383.0549468221061 L 267.0965349764085,374.6473081365511 L 268.85383998318355,366.3273892778779 L 271.13184204200707,358.12819726219345 L 273.92230851355305,350.08231065595794 L 277.2149689803612,342.22175013461947 L 280.9975528500436,334.57785105698656 L 285.2558349242767,327.18113856235345 L 289.973688765008,320.06120568822246 L 295.1331476582151,313.24659499520334 L 300.714472945204,306.7646841725123 L 306.6962294619203,300.64157608246103 L 313.0553677982797,294.9019936853815 L 319.7673130620773,289.5691802678198 L 326.80605980586927,284.6648053764246 L 334.14427275029607,280.2088768380035 L 341.75339291389906,276.21965922264803 L 349.603748737469,272.71359908189777 L 357.66467177063225,269.705257267564 L 365.90461646969885,267.2072486092645 L 374.29128363883945,265.2301892000237 L 382.7917470316224,263.782651509522 L 391.37258261667216,262.87112751395546 L 400.0000000000003,262.5 L 408.6399754872342,262.67152216826986 L 417.25838626180587,263.38580562899654 L 425.82114514991247,264.6408168495866 L 434.29433544003354,266.4323820803618 L 442.64434522374324,268.75420075126897 L 450.8380007257549,271.5978672988328 L 458.8426980942943,274.9529013491967 L 466.6265331282671,278.8067861499336 L 474.1584284250934,283.1450151105213 L 481.40825744250816,287.9511462790702 L 488.34696497916934,293.20686455127634 L 494.9466835923089,298.89205137665 L 501.18084548609204,304.9848616970981 L 507.02428942155746,311.4618078239074 L 512.4533622181183,318.29784993134706 L 517.4460144373311,325.4664928184228 L 521.9818898621058,332.93988856504114 L 526.0424084085167,340.6889446849857 L 529.6108421328225,348.68343735575667 L 532.6723840231743,356.892129284696 L 535.2142092935569,365.282891751786 L 537.2255289267979,373.8228303523744 L 538.6976352437641,382.47841394771086 L 539.6239393071153,391.21560631785013 L 540,400.00000000000153 L 539.8235446528008,408.79695178605675 L 539.0944811242898,417.57171934571585 L 537.8149012772349,426.289598436378 L 535.9890758224594,434.9160601579469 L 533.6234405394691,443.4168877096799 L 530.726573915888,451.75831210746594 L 527.3091662819687,459.90714632320635 L 523.3839805501755,467.8309173135225 L 518.9658047032331,475.49799541254197 L 514.0713962068676,482.8777205732387 L 508.71941855566354,489.9405249535405 L 502.9303701919027,496.6580513571315 L 496.7265060677227,503.00326705464636 L 490.1317521504649,508.9505725284965 L 483.17161319938475,514.4759047040552 L 475.8730741690253,519.5568342510857 L 468.2644956202121,524.172656562216 L 460.37550354392584,528.3044760396823 L 452.23687402595573,531.935283347543 L 443.88041320124205,535.050025313912 L 435.3388329661249,537.6356671963788 L 426.64562293408864,539.6812470536198 L 417.83491913620065,541.1779219970501 L 408.9413699809739,542.1190061281859 L 399.9999999999992,542.5 L 391.04607191511866,542.3186114738714 L 382.1149475703741,541.574767877576 L 373.24194827715843,540.2706194040568 L 364.4622151241417,538.4105337252813 L 355.81056980438154,536.0010818302067 L 347.3213765108212,533.0510151306082 L 339.02840544788165,529.571233913134 L 330.9646985012239,525.5747472502854 L 323.1624376000112,521.0766245169885 L 315.6528162960291,516.0939386928043 L 308.46591507208836,510.6457016626035 L 301.63058087804734,504.7527917604567 L 295.1743113768006,498.437873832545 L 289.12314436456325,491.7253121248356 L 283.5015528100066,484.6410763301149 L 278.33234593515965,477.21264115647347 L 273.63657673767466,469.468879805467 L 269.433456329153,461.4399517728392 L 265.740275437736,453.15718540766625 L 262.57233339535037,444.65295568718017 L 259.9428749007999,435.9605576840378 L 257.8630348195586,427.11407622055367 L 256.34179124966346,418.1482522201101 L 255.38592705074336,409.0983462797959 L 254.99999999999997,400 L 255.1863217050578,390.8890956162962 L 255.9449453691379,381.8016144864621 L 257.2736624691218,372.7734949906928 L 259.168008371897,363.8404904062303 L 261.62127687905524,355.0380273184449 L 264.62454365467084,346.4010651291102 L 268.1666984557014,337.96395721896783 L 272.2344860496055,329.76031431596846 L 276.812555669256,321.8228706125644 L 281.883518821258,314.1833531652985 L 287.42801523045785,306.8723550977157 L 293.4247866709906,299.91921311322466 L 299.8507584026327,293.3518898082476 L 306.68112790079203,287.1968612576243 L 313.88946053915333,281.47901032406975 L 321.44779185608013,276.2215261214039 L 329.3267360092781,271.44581003756537 L 337.4955999982474,267.1713886979883 L 345.92250321062136,263.4158342230156 L 354.5745018268837,260.1946921046121 L 363.4177175980513,257.521416997978 L 372.41747049298124,255.40731669273706 L 381.53841469597836,253.86150449637736 L 390.74467742138006,252.8908602296727 L 400.0000000000013,252.49999999999997 L 409.2678806825263,252.6912548839871 L 418.5117185974479,253.46465861585165 L 427.69495829577073,254.8179443422999 L 436.7812343116831,256.7465504690757 L 445.7345151674937,259.2436355883177 L 454.51924625260074,262.3001024399499 L 463.10049100994416,265.90463082453607 L 471.44406986928516,270.04371934949546 L 479.51669637488425,274.7017358555016 L 487.28610996543205,279.8609763353201 L 494.72120487665546,285.50173212351785 L 501.7921546515965,291.6023651024366 L 508.4705317603068,298.13939063781197 L 514.729421849316,305.08756792642134 L 520.5435321618671,312.41999740842147 L 525.8892936923507,320.10822486863196 L 530.744956662545,328.1223518240249 L 535.0906789331773,336.43115176933594 L 538.9086069917047,345.0021918289089 L 542.1829491861256,353.8019593409456 L 544.9000409048434,362.79599288013844 L 547.0484014340849,371.9490172065182 L 548.618782256909,381.2250816120689 L 549.6042065913979,390.587701122556 L 550,400.0000000000005 L 549.8038119370835,409.42485698135096 L 549.0156281374344,418.82505168136 L 547.637773784522,428.16341158223423 L 545.6749074337461,437.40295902959446 L 543.1340057024204,446.50705765343037 L 540.0243387747703,455.4395576343137 L 536.3574368066284,464.16493923885804 L 532.1470473506146,472.6484540545388 L 527.4090839582537,480.85626336233105 L 522.1615661506164,488.7555730961643 L 516.4245509834208,496.3147648510282 L 510.2200564661175,503.50352241641764 L 503.5719771270103,510.2929533288598 L 496.50599204795094,516.655704956255 L 489.0494657223086,522.5660746478053 L 481.2313421188162,528.0001135061053 L 473.08203236123006,532.9357233626541 L 464.6332964595775,537.352746564342 L 455.91811955280156,541.2330482064258 L 446.9705831449905,544.5605904768638 L 437.82573183777447,547.3214988076647 L 428.5194360799469,549.5041195609065 L 419.0882514718427,551.0990690101951 L 409.569275176266,552.0992734124686 L 400.0000000000003,552.5 L 390.4181667198266,552.2988787581542 L 380.86161523473004,551.4959148907208 L 371.3681351313001,550.0934919113434 L 361.9753162524921,548.0963653365673 L 352.72039986063305,545.5116469931585 L 343.6401309839754,542.3487799894912 L 334.77061253223,538.6195044377938 L 326.1471617602058,534.3378140507236 L 317.80416965022215,529.5199037720092 L 309.7749637731052,524.1841086365542 L 302.0916751746007,518.3508340903608 L 294.7851098187597,512.0424780346701 L 287.8846251025857,505.2833448918311 L 281.418011936806,498.09955202232334 L 275.4113828662578,490.51892885304045 L 269.8890666801389,482.57090910626255 L 264.8735099372355,474.2864165464832 L 260.3851858044933,465.6977446884909 L 256.4425105788539,456.838430934514 L 253.0617682323985,447.74312563092866 L 250.2570432895133,438.44745655568533 L 248.04016231227152,428.98788936640983 L 246.42064423651883,419.4015845557542 L 245.40565976646067,409.72625147509007 L 244.99999999999997,399.9999999999989 L 245.20605442077516,390.2611904210019 L 246.023798355993,380.5482821508201 L 247.4507899618347,370.8996818448366 L 249.48217676061094,361.35359153458074 L 252.11071171610402,351.9478573746944 L 255.32677879578875,342.7198196022624 L 259.1184279310408,333.7061643033181 L 263.47141924916633,324.94277757495223 L 268.3692764142364,316.4646026627735 L 273.7933488775092,308.30550064237286 L 279.72288280269925,300.4981152002296 L 286.1351003967758,293.07374205393853 L 293.0052873433466,286.06220353403273 L 300.30688800330597,279.4917288298657 L 308.0116080162277,273.3888403803209 L 316.0895239062893,267.77824686638434 L 324.5091992682618,262.68274323712626 L 333.23780708259767,258.1231181733276 L 342.2412576837756,254.11806936413274 L 351.4843318831332,250.6841269416609 L 360.93081872640175,247.83558538669195 L 370.543657347125,245.58444418544994 L 380.2850823603364,243.94035748323245 L 390.1167722260858,242.91059294539008 L 400.0000000000002,242.5 L 409.8957858778205,242.71098759970442 L 419.765050933092,243.54351160270699 L 429.56877144162905,244.99507183501325 L 439.2681331833306,247.06071885778914 L 448.82468511124216,249.7330704253659 L 458.20049177944856,253.00233758106782 L 467.35828392559586,256.8563602998763 L 476.2616066103013,261.2806525490563 L 484.87496432467333,266.25845660048094 L 493.16396248835764,271.7708063915713 L 501.09544477414323,277.7965996957606 L 508.6376257108842,284.3126788282232 L 515.7602180345202,291.2939195785243 L 522.4345542770733,298.71332802893363 L 528.6337021056173,306.54214488549763 L 534.3325729473714,314.74995691884294 L 539.5080234629829,323.3048150830068 L 544.138949457837,332.17335885368425 L 548.2063718505876,341.32094630206313 L 551.6935143490774,350.71178939719715 L 554.58587251613,360.309094008491 L 556.8712739413716,370.07520406065987 L 558.5399292700537,379.9717492764248 L 559.5844738756807,389.95979592726394 L 560,400.00000000000165 L 559.7840792213663,410.05276217664294 L 558.9367751505793,420.07838401700195 L 557.4606462918086,430.03722472809255 L 555.3607390450321,439.8898579012441 L 552.6445708653716,449.5972275971809 L 549.3221036336531,459.1208031611594 L 545.405707331289,468.4227321545078 L 540.9101141510528,477.4659907955569 L 535.8523632132733,486.214531312122 L 530.2517360943666,494.63342561908814 L 524.1296834111794,502.68900474851426 L 517.5097427403309,510.34899347570536 L 510.4174481862964,517.5826396030747 L 502.8802319454387,524.3608373840121 L 494.92731824523423,530.6562445915541 L 486.5896100686052,536.443392761126 L 477.8995691022463,541.6987901630933 L 468.8910893752271,546.4010170890027 L 459.5993650796494,550.5308130653079 L 450.060753088741,554.0711556398151 L 440.31263070942197,557.0073304189514 L 430.393249225803,559.3269920681936 L 420.3415838074868,561.0202160233398 L 410.1971803715602,562.0795406967513 L 399.9999999999992,562.5 L 389.79026152453235,562.2791460424369 L 379.60828289908585,561.4170619038654 L 369.494321985444,559.9163644186306 L 359.4884173808446,557.7821969478539 L 349.6302299168825,555.0222121561097 L 339.9588854571275,551.6465448483732 L 330.5128196165803,547.6677749624545 L 321.3296250191896,543.1008808511627 L 312.44590170043125,537.9631830270288 L 303.89711125017953,532.2742785803031 L 295.7174352771129,526.0559665181179 L 287.9396387594736,519.332164308885 L 280.59493882837234,512.1288159511188 L 273.7128795090474,504.4737919198094 L 267.3212129225076,496.3967813759643 L 261.4457874251194,487.9291770560535 L 256.1104431367974,479.1039532875013 L 251.3369152798326,469.9555376041406 L 247.14474571997093,460.5196764613597 L 243.5512030694466,450.833295574677 L 240.5712116782273,440.93435542733494 L 238.21728980498486,430.86170251226815 L 236.49949722337385,420.65491689139617 L 235.42539248217787,410.35415667038205 L 234.99999999999997,400.00000000000006 L 235.2257871364924,389.6332852257099 L 236.10265134284836,379.294949815176 L 237.62791745454803,369.02586869897823 L 239.7963451493243,358.8666926629333 L 242.60014655315214,348.857687430946 L 246.0290139369058,339.03857407541665 L 250.0701574063811,329.44837138766627 L 254.70835244872828,320.125240833934 L 259.9259971592157,311.1063347129845 L 265.703178933759,302.42764811944903 L 272.01775037494207,294.1238753027418 L 278.8454141225625,286.2282709946508 L 286.1598162840589,278.77251725981944 L 293.9326481058182,271.7865964021085 L 302.13375549330385,265.2986704365708 L 310.73125595650026,259.33496761136354 L 319.6916625272457,253.919676436687 L 328.9800141669459,249.0748476486679 L 338.56001215692777,244.82030450525062 L 348.39416193938484,241.173561778709 L 358.44391985475437,238.14975377540534 L 368.66984420126664,235.76157167816328 L 379.0317500246922,234.0192104700878 L 389.4888670307938,232.93032566110725 L 400.0000000000014,232.49999999999997 L 410.52369107311483,232.73072031542176 L 421.0183832687339,233.62236458956207 L 431.4425845874852,235.17219932772616 L 441.75503205498023,237.3748872465031 L 451.91485505499276,240.22250526241473 L 461.8817373062942,243.70457272218488 L 471.61607684124556,247.80808977521568 L 481.0791433513195,252.5175857486182 L 490.2332322744643,257.8151773454614 L 499.04181501128335,263.6806364478225 L 507.46968467162924,270.091467268002 L 515.4830967701703,277.02299255400834 L 523.0499043087351,284.44844851923824 L 530.139686704832,292.3390881314477 L 536.723872049366,300.664292362572 L 542.775852202391,309.39168896905204 L 548.2710902634223,318.4872783419906 L 553.1872199824978,327.91556593803455 L 557.5041367094706,337.6397007752175 L 561.2040795120286,347.6216194534466 L 564.271704127416,357.82219513684134 L 566.6941464486588,368.20139091480377 L 568.4610762831986,378.71841694078296 L 569.5647411599633,389.3318907319696 L 570,400.0000000000005 L 569.764346505649,410.68066737193726 L 568.857922163724,421.33171635264614 L 567.2835187990956,431.9110378739486 L 565.0465706563187,442.3767567728915 L 562.1551360283235,452.6873975409293 L 558.6198684925353,462.8020486880073 L 554.4539778559488,472.68052507015966 L 549.6731809514919,482.283527536573 L 544.2956424682941,491.572799261911 L 538.3419060381154,500.5112781420138 L 531.8348158389365,509.0632446460021 L 524.7994290145458,517.1944645349913 L 517.2629192455842,524.8723258772881 L 509.2544718429248,532.0659698117709 L 500.805170768158,538.7464145353043 L 491.9478780183942,544.8866720161468 L 482.71710584326445,550.4618569635314 L 473.14888229087893,555.4492876136624 L 463.2806106064951,559.8285779241909 L 453.15092303248935,563.581720802767 L 442.7995295810717,566.6931620302373 L 432.26706237166144,569.1498645754803 L 421.5949161431287,570.9413630364846 L 410.8250855668522,572.059807981034 L 399.99999999999795,572.5 L 389.16235632924037,572.2594133267196 L 378.354950563444,571.3382089170102 L 367.62050883958557,569.7392369259172 L 357.00151850919485,567.4680285591398 L 346.5400599731342,564.5327773190616 L 336.27763993028185,560.9443097072561 L 326.2550267009285,556.7160454871141 L 316.5120882781714,551.8639476516008 L 307.0876337506402,546.4064622820483 L 298.01925872725576,540.3644485240533 L 289.3431953796269,533.7610989458765 L 281.09416770018584,526.6218505830983 L 273.3052525541574,518.9742870104047 L 266.0077470812903,510.84803181729717 L 259.23104297875886,502.27463389888993 L 253.0025081700986,493.2874450058424 L 247.34737633635817,483.9214900285174 L 242.28864475517187,474.2133305197902 L 237.84698086108887,464.2009219882076 L 234.04063790649545,453.9234655184276 L 230.88538006694063,443.4212542989823 L 228.3944172976977,432.7355156581242 L 226.57835021022927,421.90824922704036 L 225.44512519789524,410.98206186567637 L 224.99999999999997,399.99999999999886 L 225.24551985220972,389.00538003041555 L 226.18150432970344,378.0416174795341 L 227.8050449472609,367.1520555531222 L 230.1105135380383,356.37979379128365 L 233.08958139020098,345.7675174871954 L 236.73124907802375,335.3573285485687 L 241.0218868817204,325.1905784720167 L 245.94528564828903,315.3077040929179 L 251.48271790419614,305.7480667631935 L 257.61300899001026,296.5497955965233 L 264.3126179471834,287.74963540525584 L 271.5557278483475,279.3827999353648 L 279.31434522477286,271.48283098560455 L 287.55840820833225,264.08146397434984 L 296.25590297038013,257.2085004928206 L 305.3729880067093,250.89168835634408 L 314.8741257862275,245.15660963624896 L 324.7222212512963,240.0265771240072 L 334.87876663008217,235.52253964636768 L 345.3039919956342,231.66299661575783 L 355.9570209831046,228.4639221641193 L 366.7960310554106,225.93869917087616 L 377.7784176890504,224.09806345694287 L 388.86096183550194,222.95005837682444 L 400.00000000000017,222.5 L 411.1515962684068,222.750453031139 L 422.2717156043782,223.70121757641743 L 433.3163977333437,225.3493268204395 L 444.24193092662756,227.6890556352165 L 455.00502499874113,230.71194009946282 L 465.56298283314214,234.40680786330282 L 475.8738697568974,238.75981925055595 L 485.89668009233776,243.75451894818013 L 495.5915002242532,249.37189809044062 L 504.9196675342071,255.59046650407234 L 513.843924569117,262.3863348402449 L 522.328567829458,269.7333062797951 L 530.3395905829484,277.60297745995047 L 537.844819132589,285.96484823395986 L 544.8140419931162,294.7864398396482 L 551.2191314574118,304.03342101926313 L 557.0341570638615,313.6697416009746 L 562.2354905071575,323.65777302238274 L 566.8019015683526,333.95845524836955 L 570.7146446749805,344.5314495096983 L 573.9575357387027,355.335296265194 L 576.5170189559453,366.32757776894533 L 578.3822232963432,377.4650846051387 L 579.5450084442462,388.7039855366777 L 580,400.00000000000176 L 579.7446137899317,411.30857256722913 L 578.7790691768688,422.585048688288 L 577.1063913063824,433.7848510198071 L 574.7324022676047,444.86365564454127 L 571.6657011912746,455.77756748468 L 567.9176333514182,466.48329421485295 L 563.5022483806094,476.93831798580925 L 558.43624775193,487.10106427759126 L 552.7389217233135,496.93106721170204 L 546.4320759818656,506.3891306649375 L 539.5399482666952,515.437484543488 L 532.0891152887591,524.0399355942791 L 524.1083903048701,532.162012151503 L 515.6287117404106,539.7711022395296 L 506.68302329108377,546.836584479053 L 497.3061459681852,553.3299512711664 L 487.5346425842805,559.2249237639707 L 477.4066752065285,564.4975581383233 L 466.961856133343,569.1263427830729 L 456.24109297624,573.0922859657181 L 445.286428452719,576.378993641524 L 434.14087551751743,578.9727370827674 L 422.8482484787705,580.8625100496296 L 411.45299076214656,582.0400752653168 L 399.9999999999992,582.5 L 388.534451133946,582.2396806110023 L 377.10161822779963,581.2593559301549 L 365.7466956937296,579.5621094332043 L 354.5146196375475,577.1538601704265 L 343.44989002938354,574.0433424820128 L 332.59639440343386,570.2420745661382 L 321.9972337852766,565.7643160117739 L 311.69455153715535,560.62701445204 L 301.72936580085127,554.8497415370691 L 292.14140620433,548.454618467802 L 282.968955482139,541.4662313736336 L 274.2486966408999,533.9115368573133 L 266.01556627994415,525.8197580696925 L 258.3026146535316,517.2222717147831 L 251.1408730350086,508.1524864218136 L 244.55922891507913,498.6457129556335 L 238.58430953592014,488.73902676953566 L 233.2403742305122,478.47112343544205 L 228.54921600220587,467.8821675150532 L 224.5300727435435,457.0136354621758 L 221.19954845565468,445.9081531706321 L 218.57154479041108,434.6093288039827 L 216.6572031970843,423.16158156268216 L 215.46485791361243,411.6099670609682 L 215,400.00000000000017 L 215.26525256792692,388.3774748351237 L 216.2603573165588,376.7882851438899 L 217.98217243997428,365.27824240726363 L 220.4246819267523,353.8928949196338 L 223.57901622724907,342.6773475434471 L 227.43348421914084,331.6760830217231 L 231.9736163570607,320.93278555636476 L 237.18221884785103,310.4901673518996 L 243.0394386491753,300.3897988134046 L 249.52283904626003,290.6719430735996 L 256.6074855194263,281.37539550776796 L 264.2660415741343,272.53732887607697 L 272.4688741654869,264.19314471138944 L 281.18416831084437,256.3763315465927 L 290.3780504474544,249.11833054907183 L 300.0147200569204,242.44840910132322 L 310.0565890452115,236.3935428358097 L 320.46442833564436,230.9783065993476 L 331.1975211032342,226.2247747874856 L 342.2138220518859,222.1524314528059 L 353.47012211145733,218.77809055283268 L 364.92221790955466,216.115826663589 L 376.5250853534061,214.17691644379826 L 388.23305664020756,212.96979109254184 L 400.0000000000015,212.49999999999997 L 411.77950146370125,212.77018574685636 L 423.52504794001993,213.7800705632725 L 435.1902108791997,215.52645431315239 L 446.7288297982774,218.0032240239305 L 458.09519494249184,221.20137493651168 L 469.2442283599902,225.10904300442078 L 480.131662672547,229.71154872589526 L 490.7142168333538,234.99145214774094 L 500.94976817404427,240.92861883542113 L 510.79752005713294,247.50029656032365 L 520.218164466603,254.6812024124862 L 529.174038888744,262.4436200055801 L 537.6292768571634,270.7575064006645 L 545.5499515603478,279.59060833647396 L 552.904211936865,288.9085873167224 L 559.6624107124312,298.67515306947206 L 565.7972238642994,308.8522048599564 L 571.2837610318182,319.3999801067332 L 576.0996664272357,330.27720972152406 L 580.2252098379316,341.4412795659476 L 583.6433673499887,352.84839739354425 L 586.3398914632326,364.45376462308934 L 588.3033703094882,376.21175226949697 L 589.5252757285288,388.07608034138326 L 590,400.00000000000045 L 589.7248810742144,411.93647776252357 L 588.7002161900135,423.83838102393236 L 586.9292638136691,435.65866416566564 L 584.4182338788913,447.35055451618854 L 581.1762663542265,458.86773742842826 L 577.2153982103002,470.16453974170093 L 572.5505189052691,481.1961109014612 L 567.1993145523693,491.9186010186072 L 561.1822009783344,502.2893351614909 L 554.5222459256142,512.2669831878633 L 547.2450806944522,521.8117244409759 L 539.3788015629723,530.8854066535671 L 530.953861364158,539.4516984257162 L 522.0029516378986,547.4762346672867 L 512.5608758140074,554.9267544228034 L 502.664413917974,561.7732305261873 L 492.35217932529883,567.9879905644086 L 481.6644681221804,573.5458286629828 L 470.64310166018856,578.4241076419559 L 459.3312629199882,582.6028511286701 L 447.7733273243662,586.0648252528107 L 436.014688663376,588.795609590054 L 424.1015808144148,590.7836570627742 L 412.0808959574383,592.0203425495996 L 399.99999999999784,592.5 L 387.9065459386542,592.2199478952851 L 375.8482858921579,591.1805029432999 L 363.87288254787103,589.3849819404909 L 352.02772076589764,586.8396917817125 L 340.3597200856327,583.5539076449638 L 328.9151488765883,579.5398394250212 L 317.73944086962706,574.8125865364345 L 306.877014796137,569.390081252478 L 296.37109785106014,563.2930207920886 L 286.2635536814064,556.5447884115523 L 276.5947155846531,549.1713638013923 L 267.403225581612,541.2012231315265 L 258.7258800057291,532.6652291289785 L 250.59748222577457,523.5965116122711 L 243.05070309125995,514.0303389447395 L 236.11594966005828,504.00398090542234 L 229.82124273548087,493.55656351055165 L 224.19210370585142,482.7289163510915 L 219.25145114332383,471.56341304190124 L 215.01950758059238,460.1038054059265 L 211.51371684436802,448.39505204227936 L 208.74867228312388,436.48314194983857 L 206.73605618393972,424.4149138983266 L 205.4845906293298,412.2378722562627 L 204.99999999999997,399.99999999999886 L 205.28498528364432,387.7495696398292 L 206.3392103034142,375.5349528082454 L 208.15929993268713,363.40442926140776 L 210.7388503154657,351.40599604798655 L 214.06845106429793,339.58717759969636 L 218.13571936025875,327.994837494875 L 222.92534583239998,316.67499264071535 L 228.4191520474118,305.67263061088363 L 234.59615939415588,295.0315308636135 L 241.43266910251137,284.79409055067373 L 248.9023530916693,275.00115561028 L 256.97635529991925,265.69185781679107 L 265.62340310619913,256.90345843717625 L 274.80992841335853,248.67119911883398 L 284.50019792453077,241.02816060532152 L 294.6564521071293,234.00512984630382 L 305.2390523041932,227.6304760353717 L 316.2066354199949,221.93003607468677 L 327.5162755763887,216.92700992860256 L 339.1236521081378,212.64186628985394 L 350.9832232398075,209.09225894154667 L 363.0484047636961,206.2929541563024 L 375.2717530177644,204.25576943065332 L 387.6051514449158,202.989523808259 L 400.0000000000001,202.5 L 412.40740665899307,202.78991846257358 L 424.7783802756643,203.85892355012788 L 437.0640240250583,205.70358180586572 L 449.2157286699246,208.31739241264387 L 461.18536488624,211.6908097735597 L 472.92547388683573,215.81127814553778 L 484.389455588199,220.66327820123564 L 495.5317535743722,226.22838534730295 L 506.30803612383306,232.48533958040028 L 516.6753725800565,239.4101266165734 L 526.592404364091,246.97606998472915 L 536.019509948032,255.15393373136692 L 544.9189631313766,263.9120353413766 L 553.2550839881048,273.216368438986 L 560.9943818806153,283.0307347937988 L 568.1056899674521,293.3168851196833 L 574.5602906647389,304.03466811894043 L 580.3320315564778,315.14218719108123 L 585.3974312861177,326.595964194676 L 589.7357750008837,338.35110962219943 L 593.3291989612753,350.36149852189703 L 596.1627639705191,362.57995147723074 L 598.2245173226328,374.9584199338526 L 599.5055430128116,387.4481751460915" stroke="black" fill="none" marker-end="url(#arrow-black)"></path><path d="M 400,400 L 400,389.3952058718713 L 420,391.6797926161383 L 440,374.0056205402228 L 460,345.69320249774626 L 480,318.6173458972944 L 500,310.4234952613929 L 520,288.13788408703743 L 540,254.49149070422632 L 560,248.9732671055159 L 580,201.50981030034814 L 600,193.44142570173122" stroke="blue" fill="none" stroke-width="2" marker-end="url(#arrow-blue)"></path></svg>